<mxfile host="www.draw.io" modified="2020-01-29T00:52:36.307Z" agent="Mozilla/5.0 (Windows NT 10.0; Win64; x64) AppleWebKit/537.36 (KHTML, like Gecko) Chrome/79.0.3945.117 Safari/537.36" etag="4E7XmAkiD035eIbJj74L" version="12.6.1" type="github">
  <diagram id="T4y8x-6s3coG1MXdCAgq" name="Page-1">
    <mxGraphModel dx="652" dy="391" grid="1" gridSize="10" guides="1" tooltips="1" connect="1" arrows="1" fold="1" page="1" pageScale="1" pageWidth="850" pageHeight="1100" math="0" shadow="0">
      <root>
        <mxCell id="0"/>
        <mxCell id="1" parent="0"/>
        <mxCell id="lgMpYD2oycPv4iwZW5uy-9" style="edgeStyle=orthogonalEdgeStyle;rounded=0;orthogonalLoop=1;jettySize=auto;html=1;entryX=0;entryY=0.5;entryDx=0;entryDy=0;endArrow=none;endFill=0;" edge="1" parent="1" source="lgMpYD2oycPv4iwZW5uy-7" target="lgMpYD2oycPv4iwZW5uy-8">
          <mxGeometry relative="1" as="geometry"/>
        </mxCell>
        <mxCell id="lgMpYD2oycPv4iwZW5uy-7" value="Ware House" style="html=1;strokeColor=#000000;" vertex="1" parent="1">
          <mxGeometry x="150" y="160" width="110" height="50" as="geometry"/>
        </mxCell>
        <mxCell id="lgMpYD2oycPv4iwZW5uy-8" value="Shipment" style="html=1;strokeColor=#000000;" vertex="1" parent="1">
          <mxGeometry x="370" y="160" width="110" height="50" as="geometry"/>
        </mxCell>
        <mxCell id="lgMpYD2oycPv4iwZW5uy-10" value="1" style="text;html=1;align=center;verticalAlign=middle;resizable=0;points=[];autosize=1;" vertex="1" parent="1">
          <mxGeometry x="260" y="170" width="20" height="20" as="geometry"/>
        </mxCell>
        <mxCell id="lgMpYD2oycPv4iwZW5uy-11" value="0...*" style="text;html=1;align=center;verticalAlign=middle;resizable=0;points=[];autosize=1;" vertex="1" parent="1">
          <mxGeometry x="330" y="170" width="40" height="20" as="geometry"/>
        </mxCell>
        <mxCell id="lgMpYD2oycPv4iwZW5uy-16" style="edgeStyle=orthogonalEdgeStyle;rounded=0;orthogonalLoop=1;jettySize=auto;html=1;endArrow=none;endFill=0;" edge="1" parent="1" source="lgMpYD2oycPv4iwZW5uy-15" target="lgMpYD2oycPv4iwZW5uy-8">
          <mxGeometry relative="1" as="geometry"/>
        </mxCell>
        <mxCell id="lgMpYD2oycPv4iwZW5uy-15" value="weight" style="html=1;strokeColor=#000000;" vertex="1" parent="1">
          <mxGeometry x="400" y="260" width="110" height="50" as="geometry"/>
        </mxCell>
        <mxCell id="lgMpYD2oycPv4iwZW5uy-18" style="edgeStyle=orthogonalEdgeStyle;rounded=0;orthogonalLoop=1;jettySize=auto;html=1;entryX=0.25;entryY=1;entryDx=0;entryDy=0;endArrow=none;endFill=0;exitX=0.75;exitY=0;exitDx=0;exitDy=0;" edge="1" parent="1" source="lgMpYD2oycPv4iwZW5uy-17" target="lgMpYD2oycPv4iwZW5uy-8">
          <mxGeometry relative="1" as="geometry"/>
        </mxCell>
        <mxCell id="lgMpYD2oycPv4iwZW5uy-19" style="edgeStyle=orthogonalEdgeStyle;rounded=0;orthogonalLoop=1;jettySize=auto;html=1;entryX=0.5;entryY=1;entryDx=0;entryDy=0;endArrow=none;endFill=0;exitX=0.25;exitY=0;exitDx=0;exitDy=0;" edge="1" parent="1" source="lgMpYD2oycPv4iwZW5uy-17" target="lgMpYD2oycPv4iwZW5uy-7">
          <mxGeometry relative="1" as="geometry"/>
        </mxCell>
        <mxCell id="lgMpYD2oycPv4iwZW5uy-17" value="id" style="html=1;strokeColor=#000000;" vertex="1" parent="1">
          <mxGeometry x="260" y="260" width="110" height="50" as="geometry"/>
        </mxCell>
      </root>
    </mxGraphModel>
  </diagram>
</mxfile>
